<svg xmlns="http://www.w3.org/2000/svg" width="413.998" height="42.692" viewBox="0 0 413.998 42.692">
  <g transform="translate(-50.66 -24.288)">
    <path d="M112.8,24.661H96.612l-.987,4.128c3.262,0,8.269,1.085,5.435,7.172L92.15,53.015,90.191,24.661H80.1L64.244,53.015,63.155,24.661H50.66l2.6,41.276h9.99L78.676,37.478l1.731,28.458h10.64l18.573-35.184Z" transform="translate(0 0.387)" fill="#fdb813"/>
    <path d="M251.757,48.99a4.153,4.153,0,0,1-1.6-.3,4,4,0,0,1-1.286-.815,3.814,3.814,0,0,1-.852-1.258,4.165,4.165,0,0,1-.3-1.588,4.034,4.034,0,0,1,.318-1.621,3.971,3.971,0,0,1,.864-1.286,4.131,4.131,0,0,1,1.286-.848,4.008,4.008,0,0,1,1.57-.3,4.212,4.212,0,0,1,1.6.3,4,4,0,0,1,1.282.848,4.206,4.206,0,0,1,.862,1.286,4.138,4.138,0,0,1,.314,1.621,4.057,4.057,0,0,1-.314,1.588,3.829,3.829,0,0,1-.871,1.258A4.132,4.132,0,0,1,251.757,49Zm0-7.211a3.2,3.2,0,0,0-1.264.247,3.117,3.117,0,0,0-1.007.677,3.073,3.073,0,0,0-.669,1.019,3.447,3.447,0,0,0-.234,1.29,3.341,3.341,0,0,0,.234,1.262,3.194,3.194,0,0,0,5.894,0,3.275,3.275,0,0,0,.238-1.262,3.383,3.383,0,0,0-.239-1.29,3.2,3.2,0,0,0-.681-1.019,3.162,3.162,0,0,0-1.007-.677,3.223,3.223,0,0,0-1.266-.247Zm.1,3.623h-.714v1.725h-.777V42.862h1.743a1.358,1.358,0,0,1,.928.334,1.134,1.134,0,0,1,.383.9,1.172,1.172,0,0,1-.2.7,1.388,1.388,0,0,1-.579.481l.932,1.847h-.883Zm-.767-1.931V44.63h.932a.748.748,0,0,0,.493-.155.579.579,0,0,0,.188-.451c0-.367-.2-.552-.646-.552Z" transform="translate(204.687 17.331)" fill="#fdb813"/>
    <path d="M203.193,41.229A28.574,28.574,0,0,1,198.1,56a13.7,13.7,0,0,1-6.626,5,10.793,10.793,0,0,1-3.7.648,7.368,7.368,0,0,1-6.616-3.042,12.98,12.98,0,0,1-1.427-8.693,30.238,30.238,0,0,1,5.217-14.883,14.512,14.512,0,0,1,6.524-5.207,12.134,12.134,0,0,1,3.478-.548,7.935,7.935,0,0,1,6.842,3.038,13.048,13.048,0,0,1,1.409,8.911m12.161.86a16.106,16.106,0,0,0-2.4-11.5,10.956,10.956,0,0,0-1.631-1.741c-3.262-2.932-8.359-4.448-15.2-4.448a31.4,31.4,0,0,0-4.669.32,29.275,29.275,0,0,0-5.429,1.195,27,27,0,0,0-8.375,4.455,27.592,27.592,0,0,0-7.16,8.251,30.6,30.6,0,0,0-2.9,8.44c-.512,2.854-1.119,10.257,3.874,14.7a21.365,21.365,0,0,0,14.774,4.779,38.058,38.058,0,0,0,5.219-.326A29.209,29.209,0,0,0,206.119,59.7a26.1,26.1,0,0,0,6.84-8.7,26.5,26.5,0,0,0,2.4-8.913" transform="translate(121.116 0.112)" fill="#fdb813"/>
    <path d="M205.318,49.642l6.412-9.769,3.794-5.643,2.718,15.413Zm10.964-24.98L211.73,31.3l-21.2,30.842-2.605,3.794h6.524l4.565-6.952a11.7,11.7,0,0,1,9.559-4.775H219l2.057,11.727h13.918L226.5,24.66H216.282Z" transform="translate(142.575 0.386)" fill="#fdb813"/>
    <path d="M190.6,26.239a39.245,39.245,0,0,0-12.709-1.947c-11.733,0-20.414,3.262-26.5,9.67a24.517,24.517,0,0,0-5.653,11.286c-1.731,6.956-.864,12.391,2.716,16.085,3.366,3.584,9.341,5.315,17.712,5.315h14.777l1.072-4.893H169.864c-4.349,0-7.615-1.311-9.582-4.014-2.049-2.946-2.487-7.064-1.293-12.4a21.971,21.971,0,0,1,6.844-11.824,16.534,16.534,0,0,1,11.751-4.351,20.072,20.072,0,0,1,3.67.328c3.92,1.2,3.274,6.728,2.4,9.99h3.794L190.6,27v-.767Z" transform="translate(97.864)" fill="#fdb813"/>
    <path d="M222.44,30.2a13.72,13.72,0,0,0-4.247,6.728,8.34,8.34,0,0,0,1.207,6.854,18.144,18.144,0,0,0,8.037,4.991,58.306,58.306,0,0,1,6.842,2.928,3.829,3.829,0,0,1,1.849,4.467,6.946,6.946,0,0,1-3.15,4.022,12,12,0,0,1-6.406,1.621,29.741,29.741,0,0,1-12.819-3.262l-.112-.1-1.317,5.213h.116a30.654,30.654,0,0,0,13.694,3.262q12.028,0,18.552-6.524a15.325,15.325,0,0,0,4.243-7.374,8.491,8.491,0,0,0-.985-6.966c-1.186-1.939-4.01-3.692-8.359-5.3a40.934,40.934,0,0,1-7.729-3.478,3.117,3.117,0,0,1-.977-3.362,5.788,5.788,0,0,1,2.832-3.478,10.371,10.371,0,0,1,5.215-1.417,14.173,14.173,0,0,1,4.124.654c3.816,1.085,3.816,5.533,3.034,8.685h3.82l2.807-11.61a35.573,35.573,0,0,0-12.705-2.4c-7.486,0-13.455,1.953-17.586,5.859" transform="translate(167.921 0.064)" fill="#fdb813"/>
    <path d="M100.961,29.007h16.4l1.083-4.347H88.8L81.838,52.906,78.576,65.936h29.765l1.083-4.783H93.03l1.961-7.808c.76-3.046,3.586-6.187,6.5-6.187h11.4l1.1-4.243H97.487Z" transform="translate(28.997 0.386)" fill="#fdb813"/>
    <path d="M235.1,24.661l-1.191,5.111h13.137l-8.905,36.165h12.921l7.29-29.647c.97-4.243,3.466-6.414,9.88-6.414h4.783l1.3-5.215Z" transform="translate(190.343 0.387)" fill="#fdb813"/>
    <path d="M106.461,30.2a13.78,13.78,0,0,0-4.247,6.728,8.359,8.359,0,0,0,1.223,6.854,18.12,18.12,0,0,0,8.035,4.991,58.021,58.021,0,0,1,6.84,2.928,3.829,3.829,0,0,1,1.851,4.463,6.962,6.962,0,0,1-3.15,4.022A12.028,12.028,0,0,1,110.6,61.8a29.693,29.693,0,0,1-12.813-3.262l-.118-.1-1.315,5.213h.112a30.636,30.636,0,0,0,13.69,3.262q12.047,0,18.566-6.524a15.345,15.345,0,0,0,4.245-7.374,8.5,8.5,0,0,0-.987-6.966c-1.187-1.939-4.012-3.692-8.359-5.3a41.073,41.073,0,0,1-7.723-3.478,3.117,3.117,0,0,1-.977-3.362,5.8,5.8,0,0,1,2.832-3.478,10.379,10.379,0,0,1,5.217-1.417,14.124,14.124,0,0,1,4.118.654c3.819,1.085,3.819,5.533,3.042,8.685h3.827l2.807-11.61a35.572,35.572,0,0,0-12.7-2.4c-7.494,0-13.455,1.953-17.6,5.859" transform="translate(47.464 0.064)" fill="#fdb813"/>
    <path d="M119.128,24.661l-1.191,5.111h13.139l-8.907,36.165h12.923l7.282-29.647c.968-4.243,3.466-6.414,9.882-6.414h4.781l1.3-5.215H119.128Z" transform="translate(69.881 0.387)" fill="#fdb813"/>
  </g>
</svg>
